<?xml version="1.0" encoding="UTF-8"?>
<svg id="Capa_1" xmlns="http://www.w3.org/2000/svg" version="1.1" viewBox="0 0 1000 1000">
  <!-- Generator: Adobe Illustrator 29.6.1, SVG Export Plug-In . SVG Version: 2.1.1 Build 9)  -->
  <defs>
    <style>
      .st0 {
        fill: #00c3ff;
      }
    </style>
  </defs>
  <g>
    <path class="st0" d="M357.45,531.58q-11.83,0-11.83-5.99c0-1.57.15-3.59.37-6.21l5.02-65.64q.08-.75-.45-.75t-.75.6l-21.63,62.87q-5.24,15.12-20.13,15.12-16.62,0-16.99-19.01l-1.12-58.98q0-.6-.45-.6-.67,0-.9.75l-19.16,72.08c-1.12,4.34-2.25,6.74-5.54,6.74-2.84,0-6.14-.75-10.78-1.95-6.29-1.65-8.53-2.7-8.53-5.99,0-1.05.3-2.25.75-3.75l21.26-74.62c5.91-20.81,5.76-20.81,24.4-20.81q20.21,0,20.21,21.85l-.07,53.89q0,.9.6.9.6,0,.9-.9l18.19-55.09q6.81-20.66,24.1-20.66,20.28,0,19.69,11.6l-4.19,82.33q-.67,12.2-12.95,12.2Z"/>
    <path class="st0" d="M402.05,463.99l-9.5,57.78q-1.65,9.81-14,9.81t-10.03-13.7l9.51-57.78q1.65-9.81,14-9.81,12.35,0,10.03,13.7ZM406.69,430.23q-2.1,12.57-12.13,12.57-13.02,0-11.23-11.37,1.95-12.28,12.58-12.28,12.57,0,10.78,11.08Z"/>
    <path class="st0" d="M422.97,474.39c0,2.7,2.24,3.89,6.14,5.09,12.13,3.89,28.59,9.28,28.59,26.95,0,15.57-12.58,26.64-32.19,26.64-10.63,0-21.71-2.69-31.44-10.48-1.5-1.2-2.84-2.55-2.84-4.64s1.05-3.29,5.54-9.28c3.59-4.64,4.04-5.24,6.14-5.24,1.65,0,3.44,1.34,5.69,2.69,3.44,2.1,8.83,5.84,16.32,5.84,6.29,0,8.98-2.85,8.98-5.24,0-4.49-8.23-5.84-16.62-9.28-10.48-4.34-17.96-10.93-17.96-22,0-17.22,15.57-26.65,32.78-26.65,10.33,0,20.06,3.74,25.15,7.33,4.04,2.84,4.94,4.19,4.94,6.14,0,1.65-.9,3.74-3.74,7.78-4.04,5.69-5.09,6.88-7.34,6.88-2.54,0-4.94-1.94-7.48-3.14-3.74-1.8-7.63-3.74-13.17-3.74-1.95,0-7.48.3-7.48,4.34Z"/>
    <path class="st0" d="M536.77,424.69c2.1,0,4.49,1.05,9.13,3.29,8.53,4.19,9.88,5.54,9.88,7.79,0,1.65-.75,3.59-3.44,8.83l-36,69.91c-8.76,17.07-8.76,17.14-25,17.07q-18.56-.08-22.01-19.16l-12.8-70.51c-.15-1.05-1.5-7.34-1.5-9.58,0-3,1.95-4.49,12.12-6.44,4.19-.75,7.04-1.2,8.53-1.2,3.97,0,4.71,1.72,6.21,10.93l10.63,69.91q.15,1.05.9,1.05.52,0,1.05-1.05l34.36-70.96c4.34-8.83,5.24-9.88,7.93-9.88Z"/>
    <path class="st0" d="M573.39,463.99l-9.5,57.78q-1.65,9.81-14,9.81t-10.03-13.7l9.51-57.78q1.65-9.81,14-9.81,12.35,0,10.03,13.7ZM578.03,430.23q-2.1,12.57-12.13,12.57-13.02,0-11.23-11.37,1.95-12.28,12.58-12.28,12.57,0,10.78,11.08Z"/>
    <path class="st0" d="M624.1,525.74c-2.32,1.5-11.98,7.33-27.54,7.33-23.2,0-31.74-13.62-31.74-25.15,0-17.81,14.52-25.9,32.49-25.9,6.89,0,11.68,1.05,15.27,2.25l.9-5.09c.9-4.94-1.5-8.68-9.73-8.68-4.94,0-8.68,1.05-11.98,2.09-1.95.6-3.89,1.5-5.54,1.5-1.8,0-3.29-.3-6.29-6.44-2.69-5.39-3.14-6.89-3.14-8.38,0-2.99,2.69-4.64,7.79-6.74,6.74-2.69,15.72-3.74,21.56-3.74,22.01,0,33.23,13.02,29.64,33.53l-6.14,35.03c-.75,4.12-2.1,6.14-5.54,8.38ZM607.93,510.77l1.8-10.48c-3.44-1.2-7.34-1.79-10.18-1.79-4.79,0-11.53,1.79-11.53,8.08,0,4.49,3.44,7.19,8.98,7.19,4.64,0,8.38-1.35,10.93-3ZM630.98,431.73c5.32-2.47,7.49-3.52,7.49-5.76,0-1.65-1.12-3.82-2.99-7.63-2.24-4.49-3.29-6.51-5.46-6.51-1.72,0-4.12,1.2-8.46,3.29l-20.21,9.73c-5.32,2.54-7.56,3.67-7.56,5.91,0,1.65,1.12,3.89,3.07,7.71,2.17,4.27,3.14,6.14,5.31,6.14,1.72,0,4.19-1.2,8.61-3.29l20.21-9.58Z"/>
    <path class="st0" d="M690.17,460.77q-1.65,10.63-11.53,10.63h-17.44l-5.09,28.89c-1.2,7.04,1.35,10.03,6.59,10.03,2.24,0,4.79-.75,6.89-1.5,2.09-.75,3.59-1.8,5.39-1.8,2.1,0,2.99,1.5,5.84,6.74,2.84,5.24,3.44,6.88,3.44,8.53,0,2.7-2.99,4.94-7.93,7.33-6.44,3.3-13.62,3.44-15.87,3.44-20.96,0-31.44-13.47-27.99-34.73l9.73-59.5q1.65-9.81,14-9.81t10.03,13.7l-1.27,7.41h18.49q8.38,0,6.74,10.62Z"/>
    <path class="st0" d="M717.53,463.99l-9.5,57.78q-1.65,9.81-14,9.81t-10.03-13.7l9.51-57.78q1.65-9.81,14-9.81,12.35,0,10.03,13.7ZM722.17,430.23q-2.1,12.57-12.13,12.57-13.02,0-11.23-11.37,1.95-12.28,12.58-12.28,12.57,0,10.78,11.08Z"/>
    <path class="st0" d="M735.3,497.3c-.3,7.33,4.49,12.57,12.27,12.57,6.89,0,9.43-2.54,11.98-6.29,3.59-5.39,4.34-5.69,6.29-5.69,1.35,0,3.44.9,7.79,2.99,5.99,2.85,7.93,3.3,7.93,6.29,0,1.65-.97,4.42-2.25,7.18-4.04,8.68-13.47,18.71-32.33,18.71-20.06,0-36.98-12.57-35.48-36.08.3-4.34,1.65-13.02,2.99-18.56,4.64-19.76,19.31-29.64,37.42-29.64,15.72,0,26.8,8.68,30.69,17.21,1.65,3.59,2.32,5.92,2.32,8.61,0,3.74-1.35,4.49-7.93,7.19-1.8.75-6.59,2.54-8.83,2.54-3.14,0-3.89-1.8-5.54-5.39-2.02-4.41-5.46-6.96-11.9-6.96-7.11,0-11.53,4.79-13.32,11.83-.9,3.29-1.95,10.18-2.09,13.47Z"/>
    <path class="st0" d="M854.36,484.87c-.3,4.34-1.42,11.98-2.99,18.56-4.72,19.76-19.31,29.64-36.98,29.64-19.76,0-36.68-12.57-35.18-36.08.3-4.34,1.42-11.97,2.99-18.56,4.72-19.76,19.31-29.64,36.98-29.64,19.76,0,36.68,12.57,35.18,36.08ZM818.36,472c-6.96,0-11.45,4.79-13.25,11.83-.82,3.14-1.87,10.18-2.1,13.25-.3,7.56,4.49,12.8,12.2,12.8,6.96,0,11.45-4.79,13.25-11.82.82-3.15,1.87-10.18,2.1-13.25.3-7.56-4.49-12.8-12.2-12.8Z"/>
    <path class="st0" d="M875.82,474.39c0,2.7,2.24,3.89,6.14,5.09,12.13,3.89,28.59,9.28,28.59,26.95,0,15.57-12.58,26.64-32.19,26.64-10.63,0-21.71-2.69-31.44-10.48-1.5-1.2-2.84-2.55-2.84-4.64s1.05-3.29,5.54-9.28c3.59-4.64,4.04-5.24,6.14-5.24,1.65,0,3.44,1.34,5.69,2.69,3.44,2.1,8.83,5.84,16.32,5.84,6.29,0,8.98-2.85,8.98-5.24,0-4.49-8.23-5.84-16.62-9.28-10.48-4.34-17.96-10.93-17.96-22,0-17.22,15.57-26.65,32.78-26.65,10.33,0,20.06,3.74,25.15,7.33,4.04,2.84,4.94,4.19,4.94,6.14,0,1.65-.9,3.74-3.74,7.78-4.04,5.69-5.09,6.88-7.34,6.88-2.54,0-4.94-1.94-7.48-3.14-3.74-1.8-7.63-3.74-13.17-3.74-1.95,0-7.48.3-7.48,4.34Z"/>
  </g>
  <g>
    <path class="st0" d="M513.96,576.18c.3.43.57.83.57,1.13,0,.46-.2.67-1.19,1.41-.87.67-1.45.95-1.84.95-.5,0-.74-.43-1.24-1.26l-5.77-9.3c-.59-.93-.91-1.39-2.13-1.39h-4.84l-1.67,10.15q-.26,1.65-2.45,1.65t-1.76-2.34l4.19-25.16c.5-2.97.5-2.99,3.49-2.99h7.31c6.18,0,10.35,3.45,10.35,8.72,0,4.97-3.23,8.4-8.72,9.41l5.7,9.02ZM505.07,563.97c4.84,0,7.44-2.49,7.44-5.96,0-3.17-2.49-4.88-6.18-4.88h-6.36l-1.82,10.85h6.92Z"/>
    <path class="st0" d="M520.95,577.2l4.21.7q-.26,1.65-2.45,1.65t-1.76-2.34ZM528.31,558.96l-3.15,18.91-4.21-.67,3.14-18.94q.26-1.65,2.45-1.65,2.15,0,1.76,2.34ZM529.8,550.36q-.41,2.54-2.41,2.54-2.54,0-2.19-2.24.39-2.49,2.47-2.49,2.47,0,2.13,2.19Z"/>
    <path class="st0" d="M554.7,565.74l-2.04,12.12q-.26,1.65-2.45,1.65t-1.76-2.34l1.93-11.26c.78-4.49-2.17-5.44-4.58-5.44-1.97,0-4.16.76-5.36,1.47l-2.62,15.92q-.26,1.65-2.45,1.65-2.15,0-1.76-2.34l2.8-16.85c.15-.91.39-1.3,1.28-1.82,1.47-.91,4.53-2.28,8.41-2.28,5.12,0,9.74,2.67,8.59,9.52Z"/>
    <path class="st0" d="M582.71,551.04l-4.19,24.92c-.17.93-.43,1.24-1.26,1.76-1.56,1-4.34,2.19-7.59,2.19-5.53,0-10-3.38-9.35-10.04.13-1.39.41-3.1.8-5.01,1.17-5.81,5.08-8.63,9.7-8.63,2.82,0,5.03.83,6.44,1.54l1.24-7.42q.26-1.65,2.45-1.65t1.76,2.34ZM576.55,561.95c-.91-.67-3.06-1.58-5.4-1.58-3.3,0-5.21,1.87-5.96,5.25-.24,1.06-.56,3.19-.7,4.49-.39,3.97,1.8,5.7,5.19,5.7,2.04,0,3.73-.74,4.82-1.5l2.06-12.36Z"/>
    <path class="st0" d="M604.97,566.18l-.17.78q-.61,2.69-3.12,2.69h-11.95l-.15.85c-.63,3.6,2.04,5.55,5.44,5.55,1.65,0,3.43-.5,5.03-1.3.39-.15.69-.39,1.06-.39.35,0,.61.17,1.15,1.15.48.83.61,1.15.61,1.45,0,.5-.67.87-1.5,1.32-1.78.93-4.01,1.63-6.38,1.63-6.2,0-10.08-3.71-9.59-9.59.15-1.65.57-3.8.87-5.19,1.34-6.42,5.77-8.91,10.52-8.91s9.72,3.19,8.18,9.96ZM596.56,559.93c-3.69,0-5.66,2.21-6.36,6.66h10.02c.59,0,.65-.07.78-.65,1.08-4.29-1.32-6.01-4.45-6.01Z"/>
    <path class="st0" d="M643.74,551.1q-.33,2-1.8,2h-13.03l-1.63,9.78h12.12q1.76,0,1.43,2.06t-1.71,1.97l-12.54.02-1.8,10.93q-.26,1.65-2.45,1.65-2.15,0-1.76-2.34l4.18-24.94q.52-3.21,3.71-3.21h13.93q1.65,0,1.34,2.08Z"/>
    <path class="st0" d="M659.91,577.7c-1.19.76-3.82,2.21-7.81,2.21-5.86,0-8.72-3.36-8.72-6.94,0-5.06,4.25-7.35,9.13-7.35,2.08,0,3.99.41,5.99,1.32l.41-2.34c.52-3.01-1.15-4.49-4.4-4.49-1.91,0-3.47.61-4.6,1.04-.37.13-.74.3-1.02.3-.35,0-.61-.13-1.1-1.19-.48-.93-.59-1.24-.59-1.52,0-.5.5-.8,1.37-1.19,1.69-.74,4.27-1.32,6.44-1.32,5.25,0,8.87,3.02,7.9,8.81l-1.89,10.8c-.17,1-.37,1.39-1.11,1.87ZM657.15,574.9l.8-4.86c-1.76-.83-3.45-1.26-5.16-1.26-2.49,0-5.29.98-5.29,3.92,0,2,1.52,3.65,4.66,3.65,2.26,0,3.97-.72,4.99-1.45ZM661.62,550.71c1.04-.48,1.45-.7,1.45-1.11,0-.3-.2-.69-.54-1.37-.41-.83-.61-1.19-1.02-1.19-.3,0-.78.22-1.61.63l-6.14,2.93c-1,.48-1.41.69-1.41,1.11,0,.3.22.71.59,1.43.39.76.57,1.08.95,1.08.33,0,.76-.22,1.56-.61l6.16-2.91Z"/>
    <path class="st0" d="M671.88,570.1c-.37,3.8,2.45,5.7,5.38,5.7,2.04,0,4.03-.82,4.99-3.1.59-1.06.74-1.13,1.11-1.13.26,0,.7.17,1.43.5,1.11.5,1.43.59,1.43,1.13,0,.33-.2.91-.41,1.43-.89,2.02-3.21,5.27-8.61,5.27s-10.13-3.38-9.48-10.04c.11-1.21.46-3.34.8-5.01,1.19-5.81,5.12-8.63,10.09-8.63s7.68,2.73,8.59,5.1c.28.7.46,1.3.46,1.89,0,.65-.22.8-1.47,1.26-.37.13-1.17.41-1.54.41-.61,0-.71-.28-1.02-1.08-.65-2.56-2.93-3.47-5.14-3.47-3.19,0-5.14,1.93-5.9,5.29-.26,1.11-.61,3.45-.69,4.49Z"/>
    <path class="st0" d="M691.65,577.2l4.21.7q-.26,1.65-2.45,1.65t-1.76-2.34ZM699,558.96l-3.15,18.91-4.21-.67,3.14-18.94q.26-1.65,2.45-1.65,2.15,0,1.76,2.34ZM700.5,550.36q-.41,2.54-2.41,2.54-2.54,0-2.19-2.24.39-2.49,2.47-2.49,2.47,0,2.13,2.19Z"/>
    <path class="st0" d="M704.25,577.17l4.21.7q-.26,1.65-2.45,1.65t-1.76-2.34ZM712.89,551.04l-4.4,26.83-4.21-.7,4.4-26.83q.26-1.65,2.45-1.65,2.15,0,1.76,2.34Z"/>
    <path class="st0" d="M748.11,558.52c0,.3-.22.7-.56,1.3l-10.95,19.3c-2.1,3.71-4.36,6.59-6.83,8.11-.82.57-1.84,1.13-2.41,1.13s-.8-.3-1.32-1.3c-.47-.84-.71-1.28-.71-1.63,0-.52.43-.65,1.34-1.15,2.08-1.04,3.82-2.75,5.81-6.25l-4.88-18.52c-.09-.46-.28-1.11-.28-1.48,0-.59.5-.76,1.93-1.15.89-.24,1.28-.33,1.5-.33.52,0,.74.17,1.13,1.91l2.54,9.82c.37,1.69.56,3.36.7,4.82.02.15.09.3.26.3.13,0,.24-.09.33-.26.43-1,1.15-2.58,2.28-4.73l5.77-10.43c.5-.95.74-1.45,1.3-1.45.37,0,.7.17,1.69.7,1.21.67,1.39.95,1.39,1.28Z"/>
    <path class="st0" d="M783.26,576.18c.3.43.57.83.57,1.13,0,.46-.2.67-1.19,1.41-.87.67-1.45.95-1.84.95-.5,0-.74-.43-1.24-1.26l-5.77-9.3c-.59-.93-.91-1.39-2.13-1.39h-4.84l-1.67,10.15q-.26,1.65-2.45,1.65t-1.76-2.34l4.19-25.16c.5-2.97.5-2.99,3.49-2.99h7.31c6.18,0,10.35,3.45,10.35,8.72,0,4.97-3.23,8.4-8.72,9.41l5.7,9.02ZM774.37,563.97c4.84,0,7.44-2.49,7.44-5.96,0-3.17-2.49-4.88-6.18-4.88h-6.36l-1.82,10.85h6.92Z"/>
    <path class="st0" d="M805.85,577.7c-1.19.76-3.82,2.21-7.81,2.21-5.86,0-8.72-3.36-8.72-6.94,0-5.06,4.25-7.35,9.13-7.35,2.08,0,3.99.41,5.99,1.32l.41-2.34c.52-3.01-1.15-4.49-4.4-4.49-1.91,0-3.47.61-4.6,1.04-.37.13-.74.3-1.02.3-.35,0-.61-.13-1.11-1.19-.48-.93-.59-1.24-.59-1.52,0-.5.5-.8,1.37-1.19,1.69-.74,4.27-1.32,6.44-1.32,5.25,0,8.87,3.02,7.9,8.81l-1.89,10.8c-.17,1-.37,1.39-1.1,1.87ZM803.09,574.9l.8-4.86c-1.76-.83-3.45-1.26-5.16-1.26-2.49,0-5.29.98-5.29,3.92,0,2,1.52,3.65,4.66,3.65,2.25,0,3.97-.72,4.99-1.45ZM807.56,550.71c1.04-.48,1.45-.7,1.45-1.11,0-.3-.2-.69-.54-1.37-.41-.83-.61-1.19-1.02-1.19-.3,0-.78.22-1.6.63l-6.14,2.93c-1,.48-1.41.69-1.41,1.11,0,.3.22.71.59,1.43.39.76.56,1.08.95,1.08.33,0,.76-.22,1.56-.61l6.16-2.91Z"/>
    <path class="st0" d="M816.78,586.31q-.26,1.65-2.45,1.65t-1.76-2.34l4.21.69ZM824.53,579.89c-2.82,0-5.03-.83-6.42-1.56l-1.32,7.96-4.21-.67,4.25-25.42c.17-.93.43-1.24,1.26-1.76,1.58-1,4.49-2.21,7.74-2.21,5.53,0,9.85,3.38,9.22,10.04-.15,1.39-.43,3.08-.8,4.99-1.19,5.81-5.1,8.63-9.72,8.63ZM825.68,560.32c-2.04,0-3.73.74-4.82,1.5l-2.06,12.34c.93.65,3.06,1.61,5.4,1.61,3.3,0,5.21-1.89,5.96-5.27.24-1.08.56-3.17.7-4.45.41-3.97-1.8-5.73-5.19-5.73Z"/>
    <path class="st0" d="M840.04,577.2l4.21.7q-.26,1.65-2.45,1.65t-1.76-2.34ZM847.39,558.96l-3.15,18.91-4.21-.67,3.14-18.94q.26-1.65,2.45-1.65,2.15,0,1.76,2.34ZM848.89,550.36q-.41,2.54-2.41,2.54-2.54,0-2.19-2.24.39-2.49,2.47-2.49,2.47,0,2.13,2.19Z"/>
    <path class="st0" d="M874.77,551.04l-4.19,24.92c-.17.93-.43,1.24-1.26,1.76-1.56,1-4.34,2.19-7.59,2.19-5.53,0-10-3.38-9.35-10.04.13-1.39.41-3.1.8-5.01,1.17-5.81,5.08-8.63,9.7-8.63,2.82,0,5.03.83,6.44,1.54l1.24-7.42q.26-1.65,2.45-1.65t1.76,2.34ZM868.61,561.95c-.91-.67-3.06-1.58-5.4-1.58-3.3,0-5.21,1.87-5.96,5.25-.24,1.06-.56,3.19-.7,4.49-.39,3.97,1.8,5.7,5.19,5.7,2.04,0,3.73-.74,4.82-1.5l2.06-12.36Z"/>
    <path class="st0" d="M898.01,566.09c-.09,1.15-.43,3.47-.84,5.32-1.28,5.64-5.19,8.5-10.28,8.5s-9.8-3.38-9.33-9.87c.09-1.15.43-3.47.84-5.32,1.28-5.64,5.19-8.5,10.28-8.5s9.8,3.36,9.33,9.87ZM888.51,560.32c-3.3,0-5.29,1.95-6.1,5.42-.26,1.17-.56,3.32-.65,4.21-.35,3.95,2.51,5.86,5.29,5.86,3.28,0,5.29-1.95,6.07-5.42.28-1.19.59-3.34.65-4.21.37-3.97-2.49-5.86-5.27-5.86Z"/>
  </g>
  <g>
    <polygon class="st0" points="206.57 463.91 113.62 463.91 94.73 529.99 187.68 529.99 206.57 463.91"/>
    <path class="st0" d="M260.13,417c-2.57-3.41-6.5-5.36-10.77-5.36h-64.91c-5.99,0-11.32,4.02-12.96,9.78l-5.77,20.18h-35.55c-5.99,0-11.32,4.02-12.96,9.78l-2.3,8.04h92.95l.18-.63c1.17-4.11.37-8.42-2.2-11.83-2.57-3.41-6.5-5.37-10.77-5.37h-13.71l4.27-14.91h61.66l-30.83,107.82h-30.07,0s-92.95,0-92.95,0l-7.95,27.81c-1.17,4.11-.37,8.42,2.2,11.83,2.57,3.41,6.5,5.36,10.77,5.36h64.91c5.99,0,11.32-4.02,12.96-9.78l5.77-20.18h35.55c5.99,0,11.32-4.02,12.96-9.78l31.72-110.94c1.17-4.11.37-8.42-2.2-11.83ZM140.4,560.29c-2.38,5.06-7.45,7.69-11.33,5.87-3.88-1.82-5.11-7.4-2.73-12.47,2.38-5.06,7.45-7.69,11.33-5.87,3.88,1.82,5.11,7.4,2.73,12.47Z"/>
    <g>
      <polygon class="st0" points="209.92 463.91 228.95 463.91 230.24 459.35 211.25 459.41 209.92 463.91"/>
      <polygon class="st0" points="204.74 482.02 223.76 482.02 225.05 477.46 206.07 477.52 204.74 482.02"/>
      <polygon class="st0" points="219.88 495.56 200.9 495.62 199.57 500.13 218.59 500.13 219.88 495.56"/>
      <polygon class="st0" points="194.31 518.23 213.33 518.23 214.62 513.67 195.64 513.73 194.31 518.23"/>
      <path class="st0" d="M234.43,443.27l-25.86.04c.47.47.92.95,1.33,1.5.71.95,1.28,1.97,1.71,3.03h21.52l1.29-4.56Z"/>
    </g>
  </g>
  <path class="st0" d="M189.14,566.91l-1.2,4.2c-1.07,3.74-3.7,6.74-7.06,8.39l300.73.02,2.4-12.61H189.14Z"/>
</svg>