<?xml version="1.0" encoding="UTF-8"?>
<svg id="Capa_1" xmlns="http://www.w3.org/2000/svg" version="1.1" viewBox="0 0 1000 1000">
  <!-- Generator: Adobe Illustrator 29.6.1, SVG Export Plug-In . SVG Version: 2.1.1 Build 9)  -->
  <defs>
    <style>
      .st0 {
        fill: #8f07e6;
      }
    </style>
  </defs>
  <polygon class="st0" points="650.89 353.81 221.57 353.81 134.29 659.01 563.62 659.01 650.89 353.81"/>
  <path class="st0" d="M898.24,137.11c-11.88-15.75-30-24.78-49.72-24.78h-299.79c-27.65,0-52.27,18.57-59.87,45.16l-26.65,93.21h-164.18c-27.65,0-52.27,18.57-59.88,45.15l-10.63,37.16h429.33l.83-2.91c5.42-18.96,1.72-38.87-10.15-54.62-11.87-15.75-30-24.78-49.72-24.78h-63.34l19.7-68.89h284.81l-142.41,498.01h-138.89,0s-429.33-.01-429.33-.01l-36.73,128.46c-5.42,18.96-1.72,38.87,10.15,54.62,11.88,15.75,30,24.78,49.72,24.78h299.79c27.65,0,52.27-18.57,59.88-45.16l26.65-93.21h164.18c27.65,0,52.27-18.57,59.88-45.15l146.53-512.41c5.42-18.96,1.72-38.87-10.15-54.62ZM345.22,798.95c-10.97,23.39-34.41,35.52-52.35,27.11-17.94-8.42-23.58-34.2-12.61-57.59,10.97-23.39,34.41-35.52,52.35-27.11,17.94,8.42,23.58,34.2,12.61,57.59Z"/>
  <g>
    <polygon class="st0" points="666.37 353.81 754.22 353.81 760.18 332.73 672.5 333.01 666.37 353.81"/>
    <polygon class="st0" points="642.43 437.44 730.28 437.44 736.25 416.36 648.57 416.64 642.43 437.44"/>
    <polygon class="st0" points="712.35 499.99 624.68 500.27 618.54 521.08 706.39 521.08 712.35 499.99"/>
    <polygon class="st0" points="594.25 604.71 682.1 604.71 688.06 583.62 600.38 583.9 594.25 604.71"/>
    <path class="st0" d="M779.56,258.46l-119.44.2c2.18,2.15,4.27,4.41,6.15,6.91,3.29,4.37,5.89,9.08,7.91,13.98h99.42l5.96-21.08Z"/>
  </g>
</svg>