<?xml version="1.0" encoding="UTF-8"?>
<svg id="Capa_1" xmlns="http://www.w3.org/2000/svg" version="1.1" viewBox="0 0 1000 1000">
  <!-- Generator: Adobe Illustrator 29.6.1, SVG Export Plug-In . SVG Version: 2.1.1 Build 9)  -->
  <defs>
    <style>
      .st0 {
        fill: #fff;
      }
    </style>
  </defs>
  <g>
    <path class="st0" d="M545.07,976.49c-3.92,0-7.9-.57-11.85-1.75-21.68-6.53-33.96-29.4-27.43-51.09L746.75,123.93c6.53-21.68,29.41-33.96,51.09-27.43,21.68,6.53,33.96,29.4,27.43,51.09l-240.96,799.72c-5.34,17.74-21.63,29.18-39.24,29.18Z"/>
    <path class="st0" d="M547.33,541.01c-3.92,0-7.9-.57-11.85-1.75-21.68-6.53-33.96-29.4-27.43-51.09l32.14-106.66c6.53-21.68,29.41-33.96,51.09-27.43,21.68,6.53,33.96,29.4,27.43,51.09l-32.14,106.66c-5.34,17.74-21.63,29.18-39.24,29.18Z"/>
    <path class="st0" d="M458.4,408.18c-3.92,0-7.9-.57-11.85-1.75-21.68-6.53-33.96-29.4-27.43-51.09L510.31,52.69c6.53-21.68,29.41-33.96,51.09-27.43,21.68,6.53,33.96,29.4,27.43,51.09l-91.19,302.65c-5.34,17.74-21.63,29.18-39.24,29.18Z"/>
    <path class="st0" d="M218.68,775.8c-3.92,0-7.9-.57-11.84-1.75-21.68-6.53-33.96-29.4-27.43-51.09L333.75,210.71c6.53-21.68,29.41-33.96,51.09-27.43,21.68,6.53,33.96,29.4,27.43,51.09l-154.34,512.24c-5.34,17.74-21.63,29.18-39.24,29.18Z"/>
  </g>
  <circle class="st0" cx="214.02" cy="299.3" r="41.04"/>
</svg>